# File created by Blade
# Date/Time:  Thu Jan 15 17:55:17 2015
#---------------------------------------------------------
:version 1.10
:name HOM
:units
  mass 1.0
  length 1.000000
  angle deg
:documentation
     Acclaim Skeleton File
:root
   axis xyz
   order TX TY TZ RX RY RZ
   position 0.000000 0.000000 0.000000
   orientation 0 0 0
:bonedata
   begin
      id 1
      name Spine_dum
      direction 0.000000 1.000000 0.000000
      length 5.015652
      axis 0.0 0.0 0.0 xyz
   end
   begin
      id 2
      name LeftUpLeg_dum
      direction 1.000000 0.000000 0.000000
      length 4.275145
      axis 0.0 0.0 0.0 xyz
   end
   begin
      id 3
      name RightUpLeg_dum
      direction -1.000000 0.000000 0.000000
      length 4.275145
      axis 0.0 0.0 0.0 xyz
   end
   begin
      id 4
      name Spine
      direction 0.000000 1.000000 0.000000
      length 0.000000
      axis 0.0 0.0 0.0 xyz
      dof rx ry rz
   end
   begin
      id 5
      name Spine_dum1
      direction 0.000000 1.000000 0.000000
      length 15.980521
      axis 0.0 0.0 0.0 xyz
   end
   begin
      id 6
      name Spine_dum2
      direction 0.000000 1.000000 0.000000
      length 12.162712
      axis 0.0 0.0 0.0 xyz
   end
   begin
      id 7
      name Spine_dum3
      direction 0.000000 1.000000 0.000000
      length 12.162712
      axis 0.0 0.0 0.0 xyz
   end
   begin
      id 8
      name Head
      direction 0.000000 1.000000 0.000000
      length 4.527550
      axis 0.0 0.0 0.0 xyz
      dof rx ry rz
   end
   begin
      id 9
      name LeftShoulder
      direction 1.000000 0.000000 0.000000
      length 7.205867
      axis 0.0 0.0 -90.0 xyz
      dof rx ry rz
   end
   begin
      id 10
      name LeftArm
      direction 1.000000 0.000000 0.000000
      length 10.786708
      axis 0.0 0.0 -90.0 xyz
      dof rx ry rz
   end
   begin
      id 11
      name LeftForeArm
      direction 1.000000 0.000000 0.000000
      length 7.946034
      axis 0.0 0.0 -90.0 xyz
      dof rz ry rx
   end
   begin
      id 12
      name LeftHand
      direction 0.000000 0.000000 0.000000
      length 0.000000
      axis 0.0 0.0 -90.0 xyz
      dof rx ry rz
   end
   begin
      id 13
      name LeftHand_dum1
      direction 0.000000 0.000000 0.000000
      length 0.000000
      axis 0.0 0.0 -90.0 xyz
   end
   begin
      id 14
      name LeftHand_dum2
      direction 1.000000 0.000000 0.000000
      length 3.937000
      axis 0.0 0.0 -90.0 xyz
   end
   begin
      id 15
      name LeftHandThumb1
      direction 0.000000 0.000000 1.000000
      length 3.937000
      axis 0.0 0.0 -90.0 xyz
      dof rx ry rz
   end
   begin
      id 16
      name RightShoulder
      direction -1.000000 0.000000 0.000000
      length 7.205867
      axis 0.0 0.0 90.0 xyz
      dof rx ry rz
   end
   begin
      id 17
      name RightArm
      direction -1.000000 0.000000 0.000000
      length 10.786708
      axis 0.0 0.0 90.0 xyz
      dof rx ry rz
   end
   begin
      id 18
      name RightForeArm
      direction -1.000000 0.000000 0.000000
      length 7.946034
      axis 0.0 0.0 90.0 xyz
      dof rz ry rx
   end
   begin
      id 19
      name RightHand
      direction 0.000000 0.000000 0.000000
      length 0.000000
      axis 0.0 0.0 90.0 xyz
      dof rx ry rz
   end
   begin
      id 20
      name RightHand_dum1
      direction 0.000000 0.000000 0.000000
      length 0.000000
      axis 0.0 0.0 90.0 xyz
   end
   begin
      id 21
      name RightHand_dum2
      direction -1.000000 0.000000 0.000000
      length 3.937000
      axis 0.0 0.0 90.0 xyz
   end
   begin
      id 22
      name RightHandThumb1
      direction 0.000000 0.000000 1.000000
      length 3.937000
      axis 0.0 0.0 90.0 xyz
      dof rx ry rz
   end
   begin
      id 23
      name LeftUpLeg
      direction 0.000000 -1.000000 0.000000
      length 17.046659
      axis 0.0 0.0 0.0 xyz
      dof rx ry rz
   end
   begin
      id 24
      name LeftLeg
      direction 0.000000 -1.000000 0.000000
      length 17.458438
      axis 0.0 0.0 0.0 xyz
      dof rx ry rz
   end
   begin
      id 25
      name LeftFoot
      direction 0.000000 -0.258819 0.965926
      length 5.099406
      axis 15.0 0.0 0.0 xyz
      dof rx ry rz
   end
   begin
      id 26
      name LeftToeBase
      direction 0.000000 0.000000 1.000000
      length 2.952750
      axis 0.0 0.0 0.0 xyz
      dof rx ry rz
   end
   begin
      id 27
      name RightUpLeg
      direction 0.000000 -1.000000 0.000000
      length 17.046659
      axis 0.0 0.0 0.0 xyz
      dof rx ry rz
   end
   begin
      id 28
      name RightLeg
      direction 0.000000 -1.000000 0.000000
      length 17.458438
      axis 0.0 0.0 0.0 xyz
      dof rx ry rz
   end
   begin
      id 29
      name RightFoot
      direction 0.000000 -0.258819 0.965926
      length 5.099406
      axis 15.0 0.0 0.0 xyz
      dof rx ry rz
   end
   begin
      id 30
      name RightToeBase
      direction 0.000000 0.000000 1.000000
      length 2.952750
      axis 0.0 0.0 0.0 xyz
      dof rx ry rz
   end
:hierarchy
   begin
      root Spine_dum LeftUpLeg_dum RightUpLeg_dum
      Spine_dum Spine
      LeftUpLeg_dum LeftUpLeg
      RightUpLeg_dum RightUpLeg
      Spine Spine_dum1 Spine_dum2 Spine_dum3
      Spine_dum1 Head
      Spine_dum2 LeftShoulder
      Spine_dum3 RightShoulder
      LeftShoulder LeftArm
      LeftArm LeftForeArm
      LeftForeArm LeftHand
      LeftHand LeftHand_dum1 LeftHand_dum2
      LeftHand_dum1 LeftHandThumb1
      RightShoulder RightArm
      RightArm RightForeArm
      RightForeArm RightHand
      RightHand RightHand_dum1 RightHand_dum2
      RightHand_dum1 RightHandThumb1
      LeftUpLeg LeftLeg
      LeftLeg LeftFoot
      LeftFoot LeftToeBase
      RightUpLeg RightLeg
      RightLeg RightFoot
      RightFoot RightToeBase
   end

# File created by Blade
# Date/Time:  Thu Jan 15 17:55:09 2015
# Frame Rate: 120.000 fps
#------------------------------------------------------
:FULLY-SPECIFIED
:DEGREES
888
root 11.863343 35.059795 -11.174238 11.369771 -5.325628 13.269280
Spine -3.327555 -13.497897 20.249736
Head -13.687313 19.059585 24.477882
LeftShoulder -33.016896 7.544997 19.965211
LeftArm -1.117606 -40.649893 -22.272483
LeftForeArm -0.000000 18.783757 -0.072243
LeftHand 6.162459 -0.000000 8.032885
LeftHandThumb1 -26.253704 33.147579 0.000000
RightShoulder -5.061362 24.658411 -9.979336
RightArm -0.160627 47.029210 16.180075
RightForeArm 0.000000 -32.441034 26.622940
RightHand -0.448907 -0.000000 -18.318909
RightHandThumb1 -24.326973 -32.862282 -0.000000
LeftUpLeg -6.610270 -3.770946 -13.616143
LeftLeg -0.611909 -0.000000 0.000000
LeftFoot -22.303889 19.597804 -13.495901
LeftToeBase 24.405238 -0.000000 -0.000000
RightUpLeg -6.721627 -24.326594 -23.880681
RightLeg -7.903647 -0.000000 0.000000
RightFoot -12.765618 -24.311160 14.765326
RightToeBase 31.355800 -0.000000 -0.000000
889
root 11.904322 35.059034 -11.234109 11.481282 -5.005041 13.438518
Spine -3.215363 -13.263096 20.634503
Head -13.855534 19.122254 24.529259
LeftShoulder -32.855278 7.638221 20.541718
LeftArm -1.259816 -40.964089 -21.602353
LeftForeArm -0.000000 18.579390 -0.207437
LeftHand 6.366632 -0.000000 8.665827
LeftHandThumb1 -26.253704 33.147579 0.000000
RightShoulder -5.121589 24.697830 -9.874412
RightArm -0.176287 47.229846 16.557720
RightForeArm 0.000000 -32.444336 26.500271
RightHand -0.387418 -0.000000 -19.124090
RightHandThumb1 -24.326973 -32.862282 -0.000000
LeftUpLeg -6.794181 -3.843355 -13.813115
LeftLeg -0.622756 -0.000000 0.000000
LeftFoot -22.102275 19.403260 -13.447930
LeftToeBase 24.401666 -0.000000 -0.000000
RightUpLeg -6.686403 -24.697479 -24.057573
RightLeg -8.017000 -0.000000 0.000000
RightFoot -12.642959 -24.240108 14.793856
RightToeBase 31.335206 -0.000000 -0.000000
890
root 11.946459 35.056111 -11.287896 11.586028 -4.700669 13.620348
Spine -3.112046 -13.032246 21.001796
Head -14.041243 19.168193 24.533306
LeftShoulder -32.784119 7.742184 21.074169
LeftArm -1.191895 -41.082487 -21.004714
LeftForeArm -0.000000 18.264633 -0.476861
LeftHand 6.443576 -0.000000 9.510779
LeftHandThumb1 -26.253704 33.147579 0.000000
RightShoulder -5.215844 24.788579 -9.761116
RightArm -0.137625 47.239477 16.961453
RightForeArm -0.000000 -32.601554 26.328197
RightHand -0.165948 -0.000000 -19.771659
RightHandThumb1 -24.326973 -32.862282 -0.000000
LeftUpLeg -6.928340 -4.034967 -14.003187
LeftLeg -0.685837 -0.000000 0.000000
LeftFoot -21.847859 19.304220 -13.326872
LeftToeBase 24.266441 -0.000000 -0.000000
RightUpLeg -6.639096 -25.048613 -24.251474
RightLeg -8.140196 -0.000000 0.000000
RightFoot -12.526175 -24.209825 14.786651
RightToeBase 31.341342 -0.000000 -0.000000
891
root 11.990284 35.054118 -11.347454 11.680062 -4.357235 13.800324
Spine -2.987269 -12.871370 21.377175
Head -14.235587 19.231530 24.513048
LeftShoulder -32.731775 7.794157 21.587611
LeftArm -1.209428 -41.300298 -20.365591
LeftForeArm -0.000000 18.142368 -0.638218
LeftHand 6.518622 -0.000000 10.274056
LeftHandThumb1 -26.253704 33.147579 0.000000
RightShoulder -5.329930 24.843596 -9.626002
RightArm 0.051116 47.346932 17.511105
RightForeArm -0.000000 -32.802265 26.143144
RightHand -0.044051 -0.000000 -20.655826
RightHandThumb1 -24.326973 -32.862282 -0.000000
LeftUpLeg -7.066221 -4.237296 -14.191344
LeftLeg -0.735751 -0.000000 0.000000
LeftFoot -21.679512 19.180452 -13.332538
LeftToeBase 24.405066 -0.000000 -0.000000
RightUpLeg -6.577327 -25.334195 -24.467062
RightLeg -8.224386 -0.000000 0.000000
RightFoot -12.449799 -24.247731 14.849032
RightToeBase 31.257112 -0.000000 -0.000000
892
root 12.036509 35.050297 -11.397579 11.694026 -4.047036 14.000365
Spine -2.804858 -12.688185 21.703263
Head -14.395564 19.324221 24.478833
LeftShoulder -32.574309 7.786879 22.152196
LeftArm -1.366582 -41.397493 -19.676368
LeftForeArm 0.000000 17.954320 -0.754390
LeftHand 6.642942 -0.000000 11.046584
LeftHandThumb1 -26.253704 33.147579 0.000000
RightShoulder -5.413063 24.912138 -9.489702
RightArm 0.127814 47.399132 17.972093
RightForeArm -0.000000 -33.162186 25.960797
RightHand 0.062200 -0.000000 -21.503109
RightHandThumb1 -24.326973 -32.862282 -0.000000
LeftUpLeg -7.064779 -4.509971 -14.397621
LeftLeg -0.870243 -0.000000 0.000000
LeftFoot -21.445507 19.140325 -13.312983
LeftToeBase 24.337118 -0.000000 -0.000000
RightUpLeg -6.438574 -25.606967 -24.745608
RightLeg -8.301458 -0.000000 0.000000
RightFoot -12.379343 -24.241980 14.858538
RightToeBase 31.291852 -0.000000 -0.000000
893
root 12.086337 35.045355 -11.450388 11.728175 -3.733452 14.210227
Spine -2.644101 -12.506859 22.026529
Head -14.561178 19.375900 24.382869
LeftShoulder -32.477914 7.830902 22.598384
LeftArm -1.355967 -41.643033 -18.999934
LeftForeArm -0.000000 17.948444 -0.949111
LeftHand 6.642676 -0.000000 11.575192
LeftHandThumb1 -26.253704 33.147579 0.000000
RightShoulder -5.539284 25.027551 -9.349020
RightArm 0.333334 47.497958 18.470509
RightForeArm -0.000000 -33.697920 25.616674
RightHand 0.344948 -0.000000 -22.439959
RightHandThumb1 -24.326973 -32.862282 -0.000000
LeftUpLeg -7.085640 -4.844696 -14.609236
LeftLeg -1.000213 -0.000000 0.000000
LeftFoot -21.227593 19.157958 -13.311670
LeftToeBase 24.300611 -0.000000 -0.000000
RightUpLeg -6.312222 -25.839393 -25.043833
RightLeg -8.379755 -0.000000 0.000000
RightFoot -12.319356 -24.289275 14.869555
RightToeBase 31.346317 -0.000000 -0.000000
894
root 12.138746 35.041278 -11.499358 11.734486 -3.373061 14.430254
Spine -2.502154 -12.369374 22.353699
Head -14.700436 19.321049 24.303257
LeftShoulder -32.299512 7.799144 23.044694
LeftArm -1.489665 -41.664869 -18.238860
LeftForeArm -0.000000 17.765416 -1.051086
LeftHand 6.626742 0.000000 12.350378
LeftHandThumb1 -26.253704 33.147579 0.000000
RightShoulder -5.645355 25.153189 -9.210639
RightArm 0.492210 47.440137 18.914898
RightForeArm 0.000000 -34.207944 25.244529
RightHand 0.416238 -0.000000 -23.136513
RightHandThumb1 -24.326973 -32.862282 -0.000000
LeftUpLeg -7.038296 -5.262553 -14.813954
LeftLeg -1.177010 -0.000000 0.000000
LeftFoot -20.995186 19.167034 -13.375519
LeftToeBase 24.273003 -0.000000 -0.000000
RightUpLeg -6.140377 -26.169108 -25.360551
RightLeg -8.432031 -0.000000 0.000000
RightFoot -12.258690 -24.280061 14.881897
RightToeBase 31.328732 -0.000000 -0.000000
